<svg width="256px" height="256px" viewBox="0 0 256 256" version="1.1" xmlns="http://www.w3.org/2000/svg">
    <path fill="#333333" d="M110.297826,3.26911368 C105.675766,7.2503 102.406662,11.7687846 102.406662,25.6802796 C102.413135,63.4659455 149.844277,176.136755 182.056282,176.136755 L182.386429,176.136755 C183.940063,176.136755 190.627161,176.842364 192.769881,175.385832 C166.306321,219.379559 130.054868,256 109.644006,256 C65.5402293,256 3,121.914939 3,62.9221737 C3,53.6392125 4.9938299,46.0976156 8.26940758,41.456135 C23.417336,22.9031594 70.8031634,7.90412084 110.297826,3.26911368 Z M172.171288,4.72861524e-06 C212.98654,-0.00646400954 253.821212,6.62237305 253.821212,29.8103558 C253.821212,76.8725095 224.172702,133.884392 209.050668,133.884392 C182.056282,133.884392 148.491321,58.3195339 148.491321,20.533868 C148.491321,3.30795452 155.061897,4.72861524e-06 172.171288,4.72861524e-06 Z"/>
</svg>
